<svg width="18" height="18" viewBox="0 0 18 18" fill="none" xmlns="http://www.w3.org/2000/svg">
<g filter="url(#filter0_dii)">
<path d="M9.06473 16.843L4.61506 12.3933C3.73502 11.5132 3.1357 10.392 2.8929 9.1713C2.6501 7.95063 2.77472 6.68538 3.251 5.53553C3.72729 4.38569 4.53384 3.4029 5.56868 2.71145C6.60351 2.02 7.82015 1.65094 9.06473 1.65094C10.3093 1.65094 11.5259 2.02 12.5608 2.71145C13.5956 3.4029 14.4022 4.38569 14.8785 5.53553C15.3547 6.68538 15.4794 7.95063 15.2366 9.1713C14.9938 10.392 14.3944 11.5132 13.5144 12.3933L9.06473 16.843ZM12.5257 11.4046C13.2102 10.7201 13.6763 9.84803 13.8651 8.89863C14.0539 7.94924 13.9569 6.96517 13.5865 6.07087C13.216 5.17658 12.5887 4.41221 11.7838 3.87444C10.979 3.33666 10.0327 3.04962 9.06473 3.04962C8.09674 3.04962 7.15049 3.33666 6.34562 3.87444C5.54076 4.41221 4.91344 5.17658 4.54298 6.07087C4.17253 6.96517 4.07557 7.94924 4.26438 8.89863C4.45319 9.84803 4.91929 10.7201 5.60372 11.4046L9.06473 14.8656L12.5257 11.4046ZM9.06473 9.34201C8.69385 9.34201 8.33817 9.19468 8.07592 8.93243C7.81367 8.67018 7.66634 8.3145 7.66634 7.94362C7.66634 7.57275 7.81367 7.21706 8.07592 6.95482C8.33817 6.69257 8.69385 6.54524 9.06473 6.54524C9.4356 6.54524 9.79129 6.69257 10.0535 6.95482C10.3158 7.21706 10.4631 7.57275 10.4631 7.94362C10.4631 8.3145 10.3158 8.67018 10.0535 8.93243C9.79129 9.19468 9.4356 9.34201 9.06473 9.34201Z" fill="white"/>
</g>
<defs>
<filter id="filter0_dii" x="-40.968" y="-33.0394" width="94.0323" height="96.6389" filterUnits="userSpaceOnUse" color-interpolation-filters="sRGB">
<feFlood flood-opacity="0" result="BackgroundImageFix"/>
<feColorMatrix in="SourceAlpha" type="matrix" values="0 0 0 0 0 0 0 0 0 0 0 0 0 0 0 0 0 0 127 0"/>
<feMorphology radius="3.01655" operator="dilate" in="SourceAlpha" result="effect1_dropShadow"/>
<feOffset dx="-3.01655" dy="6.0331"/>
<feGaussianBlur stdDeviation="18.8534"/>
<feColorMatrix type="matrix" values="0 0 0 0 0 0 0 0 0 0 0 0 0 0 0 0 0 0 0.1 0"/>
<feBlend mode="normal" in2="BackgroundImageFix" result="effect1_dropShadow"/>
<feBlend mode="normal" in="SourceGraphic" in2="effect1_dropShadow" result="shape"/>
<feColorMatrix in="SourceAlpha" type="matrix" values="0 0 0 0 0 0 0 0 0 0 0 0 0 0 0 0 0 0 127 0" result="hardAlpha"/>
<feOffset dx="-4.52482" dy="3.01655"/>
<feGaussianBlur stdDeviation="1.50827"/>
<feComposite in2="hardAlpha" operator="arithmetic" k2="-1" k3="1"/>
<feColorMatrix type="matrix" values="0 0 0 0 1 0 0 0 0 1 0 0 0 0 1 0 0 0 0.25 0"/>
<feBlend mode="normal" in2="shape" result="effect2_innerShadow"/>
<feColorMatrix in="SourceAlpha" type="matrix" values="0 0 0 0 0 0 0 0 0 0 0 0 0 0 0 0 0 0 127 0" result="hardAlpha"/>
<feOffset dx="1.50827" dy="-2.26241"/>
<feGaussianBlur stdDeviation="2.26241"/>
<feComposite in2="hardAlpha" operator="arithmetic" k2="-1" k3="1"/>
<feColorMatrix type="matrix" values="0 0 0 0 0 0 0 0 0 0 0 0 0 0 0 0 0 0 0.25 0"/>
<feBlend mode="normal" in2="effect2_innerShadow" result="effect3_innerShadow"/>
</filter>
</defs>
</svg>
